<?xml version="1.0" standalone="no"?>
<!DOCTYPE svg PUBLIC "-//W3C//DTD SVG 20010904//EN"
 "http://www.w3.org/TR/2001/REC-SVG-20010904/DTD/svg10.dtd">
<svg version="1.0" xmlns="http://www.w3.org/2000/svg"
 width="1171.000000pt" height="1365.000000pt" viewBox="0 0 1171.000000 1365.000000"
 preserveAspectRatio="xMidYMid meet">

<g transform="translate(0.000000,1365.000000) scale(0.100000,-0.100000)"
fill="#000000" stroke="none">
<path d="M5870 11359 c-65 -16 -164 -30 -274 -39 -60 -5 -118 -15 -130 -23
-11 -8 -34 -17 -50 -21 -15 -4 -40 -15 -55 -25 -14 -10 -46 -31 -71 -47 -25
-16 -55 -41 -68 -56 -13 -16 -30 -28 -38 -28 -8 0 -14 -4 -14 -10 0 -11 -140
-98 -235 -145 -38 -19 -106 -43 -150 -55 -76 -19 -120 -35 -175 -64 -48 -25
-106 -28 -170 -6 -33 11 -83 20 -112 20 -80 0 -334 -28 -408 -45 -59 -13 -194
-33 -245 -37 -148 -9 -275 -35 -295 -59 -3 -4 -20 -10 -38 -14 -18 -4 -36 -13
-39 -21 -3 -8 -23 -19 -45 -26 -24 -7 -43 -20 -46 -30 -2 -10 -8 -18 -13 -18
-11 0 -103 -69 -107 -81 -2 -5 -9 -9 -16 -9 -7 0 -22 -11 -34 -25 -12 -14 -28
-25 -35 -25 -8 0 -20 -11 -27 -25 -10 -20 -68 -77 -133 -133 -22 -19 -77 -87
-77 -95 0 -21 -52 -118 -66 -124 -7 -3 -14 -12 -14 -20 0 -14 -52 -73 -65 -73
-4 0 -19 -12 -34 -27 -46 -46 -78 -73 -88 -73 -4 0 -19 -14 -33 -31 -36 -45
-117 -129 -124 -129 -9 0 -99 -92 -113 -115 -7 -11 -15 -27 -19 -35 -4 -8 -16
-25 -28 -38 -19 -21 -21 -36 -21 -137 0 -96 3 -116 17 -127 24 -18 48 -91 48
-147 0 -54 -24 -134 -46 -152 -17 -14 -19 -104 -3 -114 5 -4 22 -32 36 -63 23
-50 26 -70 27 -162 0 -95 -3 -111 -28 -162 -15 -32 -31 -58 -35 -58 -15 0 -41
-135 -41 -214 0 -84 23 -194 45 -210 7 -6 19 -31 25 -55 9 -34 27 -59 71 -102
32 -31 72 -62 89 -69 16 -7 30 -16 30 -21 0 -5 16 -15 35 -24 20 -8 43 -21 51
-30 8 -8 27 -18 42 -22 30 -7 67 -48 95 -104 15 -30 18 -53 14 -116 -2 -43 -9
-96 -15 -118 -5 -22 -18 -84 -28 -138 -15 -85 -16 -106 -4 -165 14 -74 26
-103 46 -115 8 -4 14 -14 14 -22 0 -8 9 -19 20 -25 11 -6 20 -17 20 -26 0 -8
7 -17 15 -21 20 -7 45 -66 45 -105 0 -41 -20 -120 -36 -138 -7 -8 -16 -33 -20
-55 -4 -22 -17 -53 -29 -70 -12 -16 -25 -38 -28 -47 -4 -10 -11 -18 -17 -18
-5 0 -10 -6 -10 -14 0 -8 -17 -36 -38 -63 -20 -26 -43 -61 -50 -76 -6 -15 -19
-30 -27 -33 -8 -4 -15 -12 -15 -19 0 -6 -9 -22 -20 -35 -11 -13 -20 -27 -20
-32 0 -4 -7 -8 -15 -8 -8 0 -21 -15 -28 -32 -8 -18 -26 -47 -40 -64 -14 -17
-29 -42 -32 -56 -4 -14 -24 -45 -46 -69 l-40 -44 3 -135 3 -135 59 -60 c32
-33 70 -78 85 -100 14 -22 29 -42 33 -45 4 -3 19 -23 35 -45 24 -35 28 -49 28
-116 0 -47 -5 -82 -13 -92 -7 -8 -18 -46 -26 -83 -10 -56 -10 -80 0 -129 13
-66 38 -120 59 -132 7 -5 20 -28 28 -53 14 -41 14 -53 1 -110 -9 -35 -20 -72
-25 -82 -11 -20 13 -126 37 -165 8 -12 14 -29 14 -36 0 -8 9 -22 20 -32 11
-10 20 -23 20 -30 0 -6 16 -26 35 -43 30 -28 105 -164 105 -191 0 -5 5 -11 12
-13 8 -3 14 -62 19 -188 5 -101 12 -186 16 -189 4 -3 21 -44 36 -91 16 -46 38
-94 50 -106 31 -31 47 -52 47 -61 0 -4 9 -16 20 -28 11 -11 34 -37 51 -57 17
-21 35 -38 40 -38 4 0 21 -11 36 -25 64 -57 72 -63 100 -69 15 -4 36 -15 47
-24 14 -14 39 -17 126 -17 101 0 110 2 134 24 14 14 26 30 26 36 0 16 41 61
63 68 9 4 17 12 17 19 0 7 28 26 63 42 60 28 67 29 212 28 82 -1 161 -4 175
-7 74 -14 173 -14 202 1 18 9 43 14 62 11 158 -27 298 -56 330 -70 21 -9 42
-17 46 -17 5 0 20 -15 34 -33 15 -17 36 -43 46 -55 11 -13 20 -30 20 -37 0 -7
6 -15 14 -18 7 -3 17 -22 20 -42 4 -20 13 -38 21 -41 7 -3 16 -17 20 -32 4
-15 13 -40 20 -57 7 -16 15 -52 18 -78 3 -26 12 -56 20 -65 8 -9 18 -34 22
-55 4 -21 14 -44 21 -52 8 -7 14 -19 14 -25 0 -6 11 -28 25 -48 14 -20 25 -43
25 -50 0 -21 39 -101 60 -122 10 -10 22 -35 26 -54 3 -20 9 -36 13 -36 14 0
60 -116 65 -165 4 -28 13 -53 21 -58 8 -4 15 -14 15 -20 0 -7 9 -30 20 -52 11
-22 20 -58 20 -81 0 -26 7 -51 19 -66 11 -13 23 -37 26 -51 4 -15 11 -27 15
-27 5 0 11 -24 15 -52 4 -29 14 -64 22 -77 17 -26 53 -160 53 -195 -1 -57 -34
-115 -118 -203 -12 -14 -32 -45 -44 -69 -11 -25 -31 -52 -44 -61 -13 -8 -24
-21 -24 -28 0 -16 -49 -123 -59 -130 -5 -2 -12 -43 -16 -90 -5 -63 -13 -93
-29 -117 -28 -42 -66 -121 -66 -137 0 -7 -9 -24 -20 -39 -11 -14 -30 -57 -41
-96 -12 -39 -26 -76 -33 -81 -18 -16 -56 -73 -56 -84 0 -5 -9 -20 -20 -33 -11
-12 -30 -43 -43 -68 -12 -25 -32 -49 -44 -55 -13 -5 -23 -17 -23 -26 0 -10
-18 -40 -41 -69 -31 -39 -41 -61 -42 -93 l-2 -42 2645 -3 c1455 -1 2659 0
2676 3 28 5 30 8 27 38 -3 17 -8 41 -13 52 -18 41 -49 141 -55 177 -3 21 -12
41 -20 45 -14 8 -43 78 -52 125 -3 15 -14 35 -24 44 -10 9 -19 21 -19 26 0 17
-51 118 -60 118 -5 0 -15 12 -23 28 -34 65 -53 97 -63 107 -7 5 -17 28 -24 50
-7 22 -16 42 -19 45 -19 16 -51 73 -61 109 -6 22 -14 41 -19 41 -8 0 -52 93
-66 138 -3 12 -11 22 -16 22 -6 0 -17 15 -25 32 -16 37 -29 59 -61 105 -13 17
-23 38 -23 46 0 8 -7 17 -15 21 -8 3 -15 13 -15 22 0 8 -8 23 -18 32 -10 10
-29 42 -43 72 -13 30 -31 61 -40 67 -9 7 -20 25 -23 39 -4 15 -23 46 -42 69
-19 23 -34 47 -34 53 0 6 -12 25 -26 42 -34 39 -64 98 -64 124 0 10 -9 37 -19
60 -11 23 -30 91 -42 151 -20 95 -27 115 -56 144 -18 19 -33 40 -33 47 0 8
-11 16 -25 20 -14 3 -25 10 -25 15 0 14 -99 108 -131 125 -16 8 -29 21 -29 28
0 8 -15 17 -34 20 -19 4 -37 13 -40 21 -2 8 -23 19 -45 26 -23 7 -41 18 -41
26 0 7 -13 16 -30 19 -16 4 -36 17 -45 30 -8 13 -22 24 -30 24 -8 0 -20 10
-26 22 -7 13 -18 29 -26 36 -7 7 -13 20 -13 28 0 8 -4 14 -8 14 -12 0 -29 40
-38 87 -4 21 -22 66 -40 100 -18 35 -36 80 -40 100 -4 21 -10 43 -14 48 -4 6
-10 19 -13 30 -3 11 -15 45 -26 75 -14 36 -24 97 -30 176 -5 67 -14 130 -20
140 -5 11 -14 60 -20 109 -6 50 -16 115 -22 145 -5 30 -11 125 -11 210 -2 194
8 225 93 300 101 89 171 265 167 422 -2 77 1 88 36 163 21 43 43 84 50 90 12
10 47 93 61 145 4 14 13 32 20 40 6 8 20 39 29 68 9 29 30 82 46 118 17 35 30
69 30 74 0 6 16 33 36 61 19 28 38 58 42 68 7 17 61 67 148 136 51 41 93 86
100 107 3 10 9 18 14 18 21 0 50 90 59 185 5 55 16 114 25 130 9 17 16 35 16
42 0 19 44 82 62 88 18 6 58 81 58 107 0 9 -9 56 -21 105 -17 71 -20 105 -14
173 8 105 18 155 36 173 49 48 86 224 72 345 -18 169 -1 329 42 387 12 17 47
57 78 90 84 91 87 94 87 103 0 5 10 19 22 32 19 21 23 41 31 159 11 148 0 260
-27 290 -21 23 -22 133 -2 150 27 23 56 92 56 134 0 53 -29 136 -52 148 -10 5
-18 16 -18 24 0 8 -9 20 -20 27 -11 7 -20 18 -20 25 0 7 -4 13 -8 13 -5 0 -33
24 -64 53 -57 53 -120 149 -132 201 -4 17 -20 46 -35 65 -16 20 -32 47 -36 60
-4 13 -19 35 -33 48 -43 40 -43 155 -1 214 20 27 -23 65 -81 73 -27 4 -52 11
-55 16 -4 6 -21 16 -38 24 -34 14 -97 65 -97 79 0 4 -16 33 -35 63 -19 30 -35
62 -35 72 0 9 -14 28 -31 42 -17 14 -43 35 -57 48 -15 12 -45 27 -67 33 -22 6
-53 17 -68 25 -16 8 -36 14 -45 14 -9 0 -37 18 -61 40 -41 38 -44 44 -50 108
-4 37 -13 78 -20 92 -18 34 -92 110 -107 110 -7 0 -16 9 -19 20 -3 11 -11 20
-16 20 -5 0 -28 18 -50 40 -22 22 -44 40 -48 40 -4 0 -20 16 -35 35 -16 19
-32 35 -36 35 -5 0 -24 15 -44 33 -50 46 -63 55 -147 99 -21 11 -39 24 -39 29
0 5 -6 9 -14 9 -24 0 -173 156 -179 188 -3 15 -16 39 -29 53 -36 40 -68 83
-68 90 0 4 -15 11 -32 14 -18 4 -36 12 -39 18 -4 5 -82 13 -175 18 -193 9
-331 24 -348 38 -6 5 -27 12 -46 16 -19 4 -51 18 -70 31 -19 13 -42 24 -51 24
-9 0 -27 8 -40 19 -13 10 -35 22 -49 26 -35 11 -150 87 -179 119 -14 14 -30
26 -37 26 -7 0 -19 8 -26 19 -7 10 -24 22 -38 26 -14 4 -36 16 -49 26 -13 11
-32 19 -42 19 -10 0 -21 5 -24 10 -4 6 -22 17 -42 25 -40 17 -291 20 -353 4z"/>
</g>
</svg>
